<?xml version="1.0" encoding="utf-8"?>
<!-- Generator: Adobe Illustrator 19.0.1, SVG Export Plug-In . SVG Version: 6.00 Build 0)  -->
<svg version="1.1" id="Capa_1" xmlns="http://www.w3.org/2000/svg" xmlns:xlink="http://www.w3.org/1999/xlink" x="0px" y="0px"
	 viewBox="-254 55 451 451" style="enable-background:new -254 55 451 451;" xml:space="preserve">
<g>
	<path d="M143.6,256.6c0-106.1-86.3-192.3-192.3-192.3c-106.4,0-192.8,86.8-192.3,193.1c0.5,106.1,87.7,192.3,193.8,191.5
		c47.6-0.4,91.2-18.1,124.6-47.2l0.6,0.6c7.2-5.4,12.8-12.5,19-19l-0.6-0.6C125.8,348.9,143.6,304.8,143.6,256.6z M-48.8,422
		c-91.1,0-165.3-74.2-165.3-165.4S-139.9,91.3-48.8,91.3c91.2,0,165.3,74.2,165.3,165.3S42.4,422-48.8,422z"/>
	<path d="M189.7,479.1L104.1,396c-5.8,4.5-13.7,7-17.7,14l0,0c0.2-0.1,1.7-0.7,1.7,0.8c0-1.5-1.4-0.9-1.7-0.8l87.2,84.6
		c2.2,2.1,5.2,3.3,8,3.3c2.9,0,5.8-1.1,8-3.3C194.1,490.5,194.1,483.4,189.7,479.1z"/>
</g>
</svg>
