<svg xmlns="http://www.w3.org/2000/svg" viewBox="-718 -687 3600 3600">
  <g id="cart" transform="translate(-3421.3 190.1)">
    <path id="Exclusion_1" d="M4317.321,1829.05c-152.3,0-291.1-10.631-412.121-31.29-165.484-28.683-292.693-75.819-379.088-139.8-82.424-52.351-159.925-117.54-230.12-193.359-65.114-70.4-127.368-152.641-184.383-244.306-96.4-154.246-180.729-337.976-250.925-545.777A3784.569,3784.569,0,0,1,2736.651,208.77C2712.511,89.024,2703.618,12.8,2703.3,11.6H6303.283c0,8.023.794,78.427-8.417,186.539a2741.715,2741.715,0,0,1-77.5,449.9c-53.361,203.989-128.639,388.322-224.245,547.782-56.22,94.272-120.539,181.123-191.688,259.149-78.771,85.848-165.007,160.464-257.277,221.44-112.917,56.162-266.967,96.88-457.7,121.35-160.719,20.058-314.768,24.872-415.456,24.872-71.943,0-117.681-2.206-119.27-2.206C4550.141,1820.626,4452.788,1829.05,4317.321,1829.05ZM2794.777,113.494h65.908c0,.6-22.392,59.773,0,165.879,30.492,141.409,61.713,266.169,109.515,399.554,120.576,276.182,317.376,678.188,650.249,874.755,179.777,126.165,453.093,122.726,696.873,122.726H4671c205.982,0,550.188-10.6,792.539-122.726,384.486-240.094,544.845-595.348,624.411-879.168C6123.84,545.342,6182.9,415.567,6195.6,279.374c9.369-100.691-34.45-165.277-34.45-165.879Z" transform="translate(0 893.85)"/>
    <path id="Path_2" d="M5256.659,346.068V257.688c0-625.724-453.781-1134.788-1012.129-1134.788S3232.4-368.452,3232.4,257.689v88.379h128.519V257.689c0-546.079,396.46-990.886,883.611-990.886s883.611,444.391,883.611,990.886v88.379Z" transform="translate(233.022 0)"/>
  </g>
</svg>
